<svg xmlns="http://www.w3.org/2000/svg" width="364" height="363" viewBox="0 0 364 363" version="1.1"><path d="M 110 67.500 C 111.866 69.425, 113.617 71, 113.892 71 C 114.167 71, 112.866 69.425, 111 67.500 C 109.134 65.575, 107.383 64, 107.108 64 C 106.833 64, 108.134 65.575, 110 67.500 M 47.757 69.250 C 46.462 70.487, 46.108 70.961, 46.972 70.303 C 47.835 69.644, 49.657 68.660, 51.021 68.116 C 52.669 67.458, 52.932 67.106, 51.806 67.063 C 50.874 67.029, 49.052 68.013, 47.757 69.250 M 63.697 70.972 C 64.356 71.835, 65.340 73.657, 65.884 75.021 C 66.542 76.669, 66.894 76.932, 66.937 75.806 C 66.971 74.874, 65.987 73.052, 64.750 71.757 C 63.513 70.462, 63.039 70.108, 63.697 70.972 M 72.030 69.734 C 72.014 70.413, 73.237 72.235, 74.750 73.782 C 76.263 75.330, 76.774 75.675, 75.887 74.548 C 74.999 73.422, 73.775 71.600, 73.167 70.500 C 72.559 69.400, 72.047 69.055, 72.030 69.734 M 242.431 96.500 C 242.432 109.700, 242.574 114.962, 242.747 108.193 C 242.921 101.424, 242.920 90.624, 242.746 84.193 C 242.572 77.762, 242.431 83.300, 242.431 96.500 M 43.232 78 C 43.232 79.925, 43.438 80.713, 43.689 79.750 C 43.941 78.787, 43.941 77.213, 43.689 76.250 C 43.438 75.287, 43.232 76.075, 43.232 78 M 63.086 86.382 L 60.672 89.500 63.533 86.780 C 65.106 85.284, 66.193 83.881, 65.947 83.662 C 65.701 83.443, 64.414 84.667, 63.086 86.382 M 114.252 108.500 C 114.263 110.700, 114.468 111.482, 114.707 110.238 C 114.946 108.994, 114.937 107.194, 114.687 106.238 C 114.437 105.282, 114.241 106.300, 114.252 108.500 M 124.355 114.500 C 124.352 119.450, 124.521 121.601, 124.731 119.280 C 124.940 116.959, 124.943 112.909, 124.736 110.280 C 124.530 107.651, 124.358 109.550, 124.355 114.500 M 67.958 133.250 C 72.102 137.665, 73 138.459, 73 137.708 C 73 137.548, 70.862 135.410, 68.250 132.958 L 63.500 128.500 67.958 133.250 M 35.462 138.250 L 30.500 143.500 35.750 138.538 C 38.638 135.808, 41 133.446, 41 133.288 C 41 132.541, 40.074 133.372, 35.462 138.250 M 60.500 140 C 63.209 142.750, 65.650 145, 65.925 145 C 66.200 145, 64.209 142.750, 61.500 140 C 58.791 137.250, 56.350 135, 56.075 135 C 55.800 135, 57.791 137.250, 60.500 140 M 114.730 139.760 C 112.725 141.852, 112.335 142.881, 113.119 144.010 C 114.032 145.326, 114.100 145.325, 113.701 144 C 113.453 143.175, 114.403 141.262, 115.812 139.750 C 117.221 138.238, 118.149 137, 117.874 137 C 117.599 137, 116.184 138.242, 114.730 139.760 M 239.750 150.706 C 240.988 150.944, 243.012 150.944, 244.250 150.706 C 245.488 150.467, 244.475 150.272, 242 150.272 C 239.525 150.272, 238.512 150.467, 239.750 150.706 M 81 151.567 C 84.408 152.329, 92 152.460, 92 151.757 C 92 151.341, 89.188 151.052, 85.750 151.116 C 82.313 151.180, 80.175 151.383, 81 151.567 M 113.327 155.947 C 111.751 157.893, 111.429 159.025, 112.153 160.065 C 113.006 161.289, 113.086 161.280, 112.703 160 C 112.457 159.175, 113.174 157.489, 114.298 156.254 C 115.422 155.019, 116.152 153.840, 115.921 153.636 C 115.689 153.431, 114.522 154.471, 113.327 155.947 M 103 163.383 C 103 164.456, 105.975 170, 106.551 170 C 106.826 170, 106.308 168.537, 105.399 166.750 C 103.542 163.100, 103 162.339, 103 163.383 M 219.300 173 C 219.300 176.025, 219.487 177.262, 219.716 175.750 C 219.945 174.238, 219.945 171.762, 219.716 170.250 C 219.487 168.738, 219.300 169.975, 219.300 173 M 19.252 173.500 C 19.263 175.700, 19.468 176.482, 19.707 175.238 C 19.946 173.994, 19.937 172.194, 19.687 171.238 C 19.437 170.282, 19.241 171.300, 19.252 173.500 M 113.500 179 C 116.209 181.750, 118.650 184, 118.925 184 C 119.200 184, 117.209 181.750, 114.500 179 C 111.791 176.250, 109.350 174, 109.075 174 C 108.800 174, 110.791 176.250, 113.500 179 M 19.232 185 C 19.232 186.925, 19.438 187.713, 19.689 186.750 C 19.941 185.787, 19.941 184.213, 19.689 183.250 C 19.438 182.287, 19.232 183.075, 19.232 185 M 171.750 182.723 C 173.537 182.945, 176.463 182.945, 178.250 182.723 C 180.037 182.502, 178.575 182.320, 175 182.320 C 171.425 182.320, 169.963 182.502, 171.750 182.723 M 146.728 184.722 C 148.503 184.943, 151.653 184.946, 153.728 184.730 C 155.802 184.513, 154.350 184.333, 150.500 184.328 C 146.650 184.324, 144.952 184.501, 146.728 184.722 M 284.250 189.689 C 285.212 189.941, 286.788 189.941, 287.750 189.689 C 288.712 189.438, 287.925 189.232, 286 189.232 C 284.075 189.232, 283.288 189.438, 284.250 189.689 M 296.250 190.689 C 297.212 190.941, 298.788 190.941, 299.750 190.689 C 300.712 190.438, 299.925 190.232, 298 190.232 C 296.075 190.232, 295.288 190.438, 296.250 190.689 M 148.768 194.725 C 150.565 194.947, 153.265 194.943, 154.768 194.715 C 156.271 194.486, 154.800 194.304, 151.500 194.310 C 148.200 194.315, 146.971 194.502, 148.768 194.725 M 239.750 195.706 C 240.988 195.944, 243.012 195.944, 244.250 195.706 C 245.488 195.467, 244.475 195.272, 242 195.272 C 239.525 195.272, 238.512 195.467, 239.750 195.706 M 284.762 199.707 C 286.006 199.946, 287.806 199.937, 288.762 199.687 C 289.718 199.437, 288.700 199.241, 286.500 199.252 C 284.300 199.263, 283.518 199.468, 284.762 199.707 M 298.750 200.723 C 300.538 200.945, 303.462 200.945, 305.250 200.723 C 307.038 200.502, 305.575 200.320, 302 200.320 C 298.425 200.320, 296.962 200.502, 298.750 200.723 M 211.500 212 C 212.353 213.650, 213.276 215, 213.551 215 C 213.826 215, 213.353 213.650, 212.500 212 C 211.647 210.350, 210.724 209, 210.449 209 C 210.174 209, 210.647 210.350, 211.500 212 M 328.252 212.500 C 328.263 214.700, 328.468 215.482, 328.707 214.238 C 328.946 212.994, 328.937 211.194, 328.687 210.238 C 328.437 209.282, 328.241 210.300, 328.252 212.500 M 338.232 212 C 338.232 213.925, 338.438 214.713, 338.689 213.750 C 338.941 212.787, 338.941 211.213, 338.689 210.250 C 338.438 209.287, 338.232 210.075, 338.232 212 M 30 214.313 C 30 214.485, 31.462 215.948, 33.250 217.563 L 36.500 220.500 33.563 217.250 C 30.825 214.221, 30 213.540, 30 214.313 M 320.202 235.522 C 319.005 237.985, 318.236 240, 318.493 240 C 319.170 240, 323.211 231.877, 322.758 231.425 C 322.549 231.215, 321.398 233.059, 320.202 235.522 M 330.679 236.546 C 328.330 241.473, 328.661 242.311, 331.116 237.656 C 332.232 235.541, 332.968 233.634, 332.752 233.418 C 332.535 233.202, 331.603 234.610, 330.679 236.546 M 88.807 238.747 C 95.576 238.921, 106.376 238.920, 112.807 238.746 C 119.238 238.572, 113.700 238.431, 100.500 238.431 C 87.300 238.432, 82.038 238.574, 88.807 238.747 M 234 248.275 C 234 248.426, 237.488 251.914, 241.750 256.025 L 249.500 263.500 242.025 255.750 C 235.082 248.552, 234 247.544, 234 248.275 M 216.223 269.750 L 216.445 286.500 216.749 270.649 C 217.032 255.819, 217.163 254.884, 218.776 256.132 C 220.126 257.176, 220.087 256.982, 218.595 255.233 C 217.547 254.005, 216.535 253, 216.345 253 C 216.155 253, 216.100 260.538, 216.223 269.750 M 302.966 260.750 L 297.500 266.500 303.250 261.034 C 308.592 255.956, 309.458 255, 308.716 255 C 308.560 255, 305.972 257.587, 302.966 260.750 M 233.500 262 C 236.766 265.300, 239.662 268, 239.937 268 C 240.212 268, 237.766 265.300, 234.500 262 C 231.234 258.700, 228.338 256, 228.063 256 C 227.788 256, 230.234 258.700, 233.500 262 M 221 259.313 C 221 259.485, 222.463 260.948, 224.250 262.563 L 227.500 265.500 224.563 262.250 C 221.825 259.221, 221 258.540, 221 259.313 M 309.469 268.250 L 303.500 274.500 309.750 268.531 C 315.556 262.987, 316.458 262, 315.719 262 C 315.564 262, 312.751 264.813, 309.469 268.250 M 240.675 278.013 C 241.322 278.845, 242.034 281.320, 242.257 283.513 L 242.664 287.500 242.832 283.372 C 242.950 280.483, 242.475 278.833, 241.250 277.872 C 239.723 276.675, 239.650 276.693, 240.675 278.013 M 274.768 283.725 C 276.565 283.947, 279.265 283.943, 280.768 283.715 C 282.271 283.486, 280.800 283.304, 277.500 283.310 C 274.200 283.315, 272.971 283.502, 274.768 283.725 M 124.252 290.500 C 124.263 292.700, 124.468 293.482, 124.707 292.238 C 124.946 290.994, 124.937 289.194, 124.687 288.238 C 124.437 287.282, 124.241 288.300, 124.252 290.500" stroke="none" fill="#c5ddf1" fill-rule="evenodd"/><path d="M 170.250 17.450 C 151.043 21.828, 134.758 36.228, 128.049 54.768 C 123.880 66.288, 123.374 72.646, 126.021 80.262 C 131.506 96.045, 133.565 118.366, 130.490 128.720 C 129.660 131.516, 127.410 136.087, 125.490 138.878 C 123.571 141.668, 122 144.413, 122 144.976 C 122 145.626, 127.100 146, 135.957 146 L 149.914 146 150.207 106.250 C 150.497 66.963, 150.527 66.439, 152.852 61.298 C 156.055 54.217, 163.972 46.907, 171.525 44.058 C 176.365 42.233, 178.925 41.886, 185 42.236 C 197.170 42.938, 206.402 48.721, 212.086 59.204 L 215.500 65.500 215.793 105.750 L 216.085 146 222.293 145.985 C 225.707 145.977, 230.300 145.321, 232.500 144.529 C 237.402 142.763, 244.341 142.609, 249.007 144.164 C 250.972 144.819, 262.125 145.584, 274.500 145.914 C 295.946 146.485, 296.642 146.570, 302.142 149.270 C 313.287 154.744, 319.940 164.717, 320.901 177.393 L 321.500 185.286 325.500 186.475 C 331.952 188.393, 335.514 190.641, 339.781 195.488 L 343.790 200.043 345.145 194.772 C 347.329 186.274, 346.877 169.825, 344.226 161.325 C 339.867 147.350, 328.223 133.675, 315 127.001 C 303.255 121.073, 300.836 120.708, 270.250 120.244 L 242 119.815 241.983 94.658 C 241.963 66.068, 241.065 59.619, 235.560 48.500 C 233.653 44.650, 229.947 39.063, 227.325 36.085 C 221.262 29.200, 209.650 21.598, 201.123 18.930 C 192.520 16.239, 178.510 15.567, 170.250 17.450 M 77.973 56.704 C 71.035 61.486, 70.447 69.664, 76.648 75.141 C 81.247 79.204, 89.917 77.827, 93.422 72.478 C 94.768 70.424, 95.373 70.243, 98.231 71.036 C 102.944 72.345, 107.438 78.020, 109.907 85.784 C 115.458 103.234, 116.603 119.056, 112.874 126.761 C 106.480 139.969, 85.059 146.340, 73.757 138.396 C 64.512 131.899, 48.971 109.708, 47.479 100.874 C 47.011 98.105, 47.345 95.958, 48.664 93.262 C 50.393 89.726, 50.739 89.524, 54.596 89.818 C 59.595 90.200, 64.255 86.789, 66.013 81.461 C 66.974 78.548, 66.864 77.389, 65.330 74.272 C 61.541 66.576, 52.816 65.030, 46.850 70.997 C 44.484 73.362, 44 74.687, 44 78.801 C 44 81.901, 43.459 84.204, 42.555 84.955 C 40.038 87.043, 37.702 95.838, 38.307 100.946 C 39.433 110.449, 48.529 126.078, 60.187 138.541 C 68.985 147.946, 73.402 150.275, 83.443 150.802 L 91.570 151.228 93.322 155.465 C 95.107 159.780, 98.768 162.687, 101.228 161.743 C 102.129 161.397, 103.713 163.382, 105.892 167.585 C 112.214 179.778, 126.884 190.548, 140.691 193.134 C 146.136 194.154, 150.169 194.058, 172.124 192.389 C 179.947 191.795, 181.194 191.955, 185.547 194.117 C 192.014 197.328, 196.991 203.920, 206.411 221.748 C 216.580 240.996, 223.268 250.437, 234.924 262 C 250.519 277.471, 263.684 283.635, 279.374 282.811 C 290.647 282.220, 298.271 278.587, 308.367 268.996 C 316.757 261.027, 322.957 252.259, 329.473 239.151 C 340.169 217.635, 340.618 205.499, 331 197.864 C 326.153 194.016, 318.389 192.253, 300.676 190.979 C 284.015 189.779, 270.820 187.712, 265.022 185.392 L 261.271 183.891 262.732 179.696 C 265.541 171.624, 262.114 160.359, 255.348 155.422 C 240.277 144.427, 219.945 154.669, 220.022 173.218 C 220.089 189.270, 236.137 199.661, 250.671 193.062 C 254.835 191.172, 254.851 191.172, 260.671 193.507 C 269.434 197.022, 279.720 198.794, 298.044 199.946 C 323.934 201.573, 329.810 204.324, 328.647 214.271 C 327.224 226.441, 315.345 248.507, 303.922 260.198 C 284.073 280.512, 262.661 278.333, 239.295 253.621 C 229.773 243.550, 224.602 235.932, 213.979 216.324 C 204.997 199.746, 200.146 193.188, 193.208 188.247 C 185.351 182.652, 180.625 182.085, 159.342 184.181 C 148.457 185.253, 146.519 185.194, 140.842 183.618 C 128.898 180.300, 118.084 171.965, 113.133 162.261 C 111.105 158.285, 111.104 158.216, 113.015 156.487 C 116.013 153.773, 116.284 151.431, 114.156 146.621 L 112.195 142.187 115.187 139.344 C 116.832 137.780, 119.376 134.475, 120.839 132 C 123.386 127.693, 123.498 126.899, 123.461 113.500 C 123.429 102.161, 122.990 97.902, 121.149 91.092 C 116.302 73.159, 110.891 65.483, 101 62.510 C 97.975 61.601, 94.825 60.433, 94 59.914 C 93.175 59.396, 91.150 58.079, 89.500 56.989 C 85.814 54.554, 81.255 54.442, 77.973 56.704 M 35.679 138.957 C 24.951 150.329, 19.687 163.685, 19.714 179.460 C 19.752 202.070, 32.317 222.011, 52.829 232.011 C 62.806 236.876, 70.986 237.925, 99.250 237.965 L 124 238 124 260.776 C 124 295.847, 125.616 304.277, 135.036 318.363 C 142.471 329.478, 154.652 338.112, 167.693 341.508 C 175.082 343.433, 190.950 343.424, 198.369 341.492 C 222.618 335.176, 240.082 313.668, 241.687 288.143 L 242.231 279.500 235.866 274.047 C 232.364 271.048, 226.800 265.515, 223.500 261.751 L 217.500 254.908 216.874 273.204 C 216.171 293.758, 215.337 297.223, 209.100 305.484 C 200.819 316.452, 184.832 320.911, 171.500 315.973 C 163.476 313.002, 155.149 304.687, 152.139 296.642 C 150.086 291.156, 150 289.332, 150 251.462 L 150 212 110.626 212 C 66.674 212, 66.651 211.997, 57.516 205.100 C 46.548 196.819, 42.089 180.832, 47.027 167.500 C 48.662 163.085, 50.767 160.005, 54.995 155.840 L 60.741 150.181 54.832 144.340 C 51.583 141.128, 47.929 137.041, 46.712 135.257 C 45.495 133.473, 43.992 132.011, 43.371 132.007 C 42.750 132.003, 39.289 135.131, 35.679 138.957" stroke="none" fill="#408ed1" fill-rule="evenodd"/></svg>