<svg xmlns="http://www.w3.org/2000/svg" width="500" height="132" viewBox="0 0 500 132" version="1.1"><path d="M 56.323 16.250 C 55.209 17.488, 53.940 19.175, 53.502 20 C 52.658 21.591, 52.888 21.374, 56.939 16.750 C 58.264 15.238, 59.124 14, 58.849 14 C 58.574 14, 57.437 15.012, 56.323 16.250 M 62.004 21.496 C 60.714 22.869, 59.848 24.120, 60.079 24.277 C 60.311 24.434, 61.709 23.311, 63.186 21.781 C 64.664 20.251, 65.530 19, 65.111 19 C 64.691 19, 63.293 20.123, 62.004 21.496 M 37.667 22.667 C 37.300 23.033, 37.007 23.821, 37.015 24.417 C 37.025 25.137, 37.277 25.115, 37.765 24.351 C 38.169 23.719, 39.625 22.993, 41 22.737 L 43.500 22.272 40.917 22.136 C 39.496 22.061, 38.033 22.300, 37.667 22.667 M 45.832 24.690 C 46.565 24.982, 48.025 26.634, 49.078 28.361 C 50.131 30.087, 50.994 30.998, 50.996 30.385 C 51.002 28.706, 47.023 23.989, 45.677 24.079 C 44.929 24.129, 44.985 24.352, 45.832 24.690 M 34.466 28.825 C 34.492 30.850, 33.954 31.578, 32.250 31.820 C 31.012 31.995, 30 32.544, 30 33.038 C 30 34.022, 32.769 33.255, 34.750 31.722 C 36.138 30.648, 36.437 27.388, 35.216 26.634 C 34.785 26.367, 34.448 27.353, 34.466 28.825 M 37.252 27 C 37.728 28.764, 41.806 29.594, 43.191 28.209 C 43.805 27.595, 43.184 27.433, 41.469 27.761 C 39.812 28.078, 38.417 27.744, 37.818 26.887 C 37.015 25.740, 36.918 25.759, 37.252 27 M 59 37.105 L 59 48.210 55 47.829 C 52.800 47.619, 51 47.797, 51 48.224 C 51 48.651, 53.025 49, 55.500 49 L 60 49 60 37.500 C 60 31.175, 59.775 26, 59.500 26 C 59.225 26, 59 30.997, 59 37.105 M 78.211 38.250 L 78 49 80.750 48.864 C 83.056 48.750, 83.142 48.658, 81.284 48.299 C 79.196 47.895, 79.050 47.283, 78.745 37.685 L 78.422 27.500 78.211 38.250 M 27.411 32.500 C 26.584 35.793, 27.504 39.198, 30.010 42.124 C 31.933 44.368, 31.927 44.289, 29.899 40.707 C 28.361 37.990, 27.911 35.935, 28.313 33.457 C 28.961 29.465, 28.338 28.805, 27.411 32.500 M 384.250 33.689 C 385.212 33.941, 386.788 33.941, 387.750 33.689 C 388.712 33.438, 387.925 33.232, 386 33.232 C 384.075 33.232, 383.288 33.438, 384.250 33.689 M 120.430 57 C 120.430 69.925, 120.573 75.213, 120.747 68.750 C 120.921 62.287, 120.921 51.712, 120.747 45.250 C 120.573 38.787, 120.430 44.075, 120.430 57 M 172.430 57 C 172.430 69.925, 172.573 75.213, 172.747 68.750 C 172.921 62.287, 172.921 51.712, 172.747 45.250 C 172.573 38.787, 172.430 44.075, 172.430 57 M 351.430 57 C 351.430 69.925, 351.573 75.213, 351.747 68.750 C 351.921 62.287, 351.921 51.712, 351.747 45.250 C 351.573 38.787, 351.430 44.075, 351.430 57 M 414.430 57 C 414.430 69.925, 414.573 75.213, 414.747 68.750 C 414.921 62.287, 414.921 51.712, 414.747 45.250 C 414.573 38.787, 414.430 44.075, 414.430 57 M 425.430 57 C 425.430 69.925, 425.573 75.213, 425.747 68.750 C 425.921 62.287, 425.921 51.712, 425.747 45.250 C 425.573 38.787, 425.430 44.075, 425.430 57 M 49 39.277 C 49 40.530, 48.289 42.668, 47.420 44.027 L 45.840 46.500 47.920 44.139 C 49.744 42.069, 50.866 37, 49.500 37 C 49.225 37, 49 38.025, 49 39.277 M 264 38.313 C 264 38.485, 265.462 39.948, 267.250 41.563 L 270.500 44.500 267.563 41.250 C 264.825 38.221, 264 37.540, 264 38.313 M 445.417 61.500 C 445.418 71.950, 445.566 76.089, 445.746 70.698 C 445.926 65.307, 445.925 56.757, 445.744 51.698 C 445.563 46.639, 445.416 51.050, 445.417 61.500 M 456.417 61.500 C 456.418 71.950, 456.566 76.089, 456.746 70.698 C 456.926 65.307, 456.925 56.757, 456.744 51.698 C 456.563 46.639, 456.416 51.050, 456.417 61.500 M 25.924 46.750 L 23.500 49.500 26.176 47.145 C 27.752 45.759, 29.357 45.103, 30.080 45.550 C 30.868 46.036, 31.053 45.895, 30.595 45.155 C 29.519 43.413, 28.585 43.732, 25.924 46.750 M 34.757 47.750 C 36.052 48.987, 37.649 49.986, 38.306 49.970 C 38.963 49.953, 38.600 49.440, 37.500 48.830 C 36.400 48.219, 34.803 47.221, 33.951 46.610 C 33.099 46, 33.462 46.513, 34.757 47.750 M 49.398 46.164 C 47.553 49.150, 48.244 53.397, 51.025 56.179 C 52.577 57.731, 54.443 58.982, 55.173 58.960 C 55.903 58.938, 55.274 58.254, 53.775 57.441 C 52.276 56.628, 50.661 55.183, 50.184 54.231 C 49.188 52.240, 49.291 47.957, 50.377 46.200 C 50.784 45.540, 50.893 45, 50.618 45 C 50.343 45, 49.794 45.524, 49.398 46.164 M 90.750 48.723 C 92.537 48.945, 95.463 48.945, 97.250 48.723 C 99.037 48.502, 97.575 48.320, 94 48.320 C 90.425 48.320, 88.963 48.502, 90.750 48.723 M 80.655 51.829 C 78.336 54.391, 78.596 58.277, 81.250 60.732 C 82.987 62.337, 84.727 62.789, 88.876 62.713 C 92.287 62.650, 93.566 62.346, 92.376 61.880 C 91.344 61.475, 89.020 61.391, 87.210 61.691 C 81.232 62.684, 77.626 56.281, 81.655 51.829 C 82.565 50.823, 83.085 50, 82.810 50 C 82.535 50, 81.565 50.823, 80.655 51.829 M 199.287 52.740 C 202.469 52.939, 207.419 52.937, 210.287 52.736 C 213.154 52.535, 210.550 52.372, 204.500 52.374 C 198.450 52.376, 196.104 52.541, 199.287 52.740 M 47.214 55.927 C 48.002 57.261, 49.739 59.004, 51.073 59.799 L 53.500 61.246 51.280 59.373 C 50.059 58.343, 48.322 56.600, 47.420 55.500 C 45.857 53.592, 45.847 53.612, 47.214 55.927 M 273.232 57 C 273.232 58.925, 273.438 59.712, 273.689 58.750 C 273.941 57.788, 273.941 56.212, 273.689 55.250 C 273.438 54.288, 273.232 55.075, 273.232 57 M 29.232 58 C 29.232 59.925, 29.438 60.712, 29.689 59.750 C 29.941 58.788, 29.941 57.212, 29.689 56.250 C 29.438 55.288, 29.232 56.075, 29.232 58 M 58.250 59.689 C 59.212 59.941, 60.788 59.941, 61.750 59.689 C 62.712 59.438, 61.925 59.232, 60 59.232 C 58.075 59.232, 57.288 59.438, 58.250 59.689 M 71.014 60.449 C 72.397 61.201, 74.564 63.658, 75.828 65.909 C 78.521 70.699, 79.806 71.459, 77.424 66.853 C 75.414 62.966, 71.528 58.986, 69.795 59.040 C 69.083 59.062, 69.631 59.696, 71.014 60.449 M 112.134 61.908 C 114.556 63.869, 116.012 63.787, 115.985 61.691 C 115.974 60.853, 115.725 60.885, 115.146 61.797 C 114.489 62.834, 114.065 62.783, 113.039 61.547 C 112.333 60.696, 111.310 60, 110.767 60 C 110.223 60, 110.839 60.858, 112.134 61.908 M 66.744 61.975 C 68.528 62.398, 70.574 63.140, 71.291 63.622 C 72.008 64.105, 71.736 63.712, 70.686 62.750 C 69.637 61.788, 67.591 61.046, 66.139 61.102 C 63.719 61.196, 63.770 61.269, 66.744 61.975 M 103.762 61.707 C 105.006 61.946, 106.806 61.937, 107.762 61.687 C 108.718 61.437, 107.700 61.241, 105.500 61.252 C 103.300 61.263, 102.518 61.468, 103.762 61.707 M 32.220 64.533 C 33.716 66.106, 35.119 67.193, 35.338 66.947 C 35.557 66.701, 34.333 65.414, 32.618 64.086 L 29.500 61.672 32.220 64.533 M 111.147 63.500 C 112.052 64.600, 113.013 66.400, 113.281 67.500 C 113.749 69.424, 113.772 69.420, 113.884 67.405 C 113.948 66.253, 112.987 64.453, 111.750 63.405 C 109.518 61.516, 109.514 61.516, 111.147 63.500 M 96.250 63.689 C 97.213 63.941, 98.787 63.941, 99.750 63.689 C 100.713 63.438, 99.925 63.232, 98 63.232 C 96.075 63.232, 95.287 63.438, 96.250 63.689 M 407.252 66.500 C 407.263 68.700, 407.468 69.482, 407.707 68.238 C 407.946 66.994, 407.937 65.194, 407.687 64.238 C 407.437 63.282, 407.241 64.300, 407.252 66.500 M 23.030 64.734 C 23.014 65.413, 24.238 67.235, 25.750 68.782 C 27.262 70.330, 27.774 70.675, 26.887 69.548 C 25.999 68.422, 24.775 66.600, 24.167 65.500 C 23.559 64.400, 23.047 64.055, 23.030 64.734 M 106.964 64.886 C 108.399 65.286, 109.714 66.601, 110.114 68.036 C 110.697 70.129, 110.816 70.191, 110.900 68.450 C 110.955 67.323, 110.460 65.860, 109.800 65.200 C 109.140 64.540, 107.677 64.045, 106.550 64.100 C 104.809 64.184, 104.871 64.303, 106.964 64.886 M 47.719 67.746 L 58.937 68.065 59.254 79.782 L 59.570 91.500 59.785 79.250 L 60 67 48.250 67.214 L 36.500 67.428 47.719 67.746 M 75.500 71 C 76.353 72.650, 77.276 74, 77.551 74 C 77.826 74, 77.353 72.650, 76.500 71 C 75.647 69.350, 74.724 68, 74.449 68 C 74.174 68, 74.647 69.350, 75.500 71 M 110.824 74.046 C 109.903 76.221, 109.329 78, 109.549 78 C 110.282 78, 113.126 71.878, 112.811 70.978 C 112.640 70.491, 111.746 71.872, 110.824 74.046 M 266.437 73.250 L 263.500 76.500 266.750 73.563 C 269.779 70.825, 270.460 70, 269.687 70 C 269.515 70, 268.052 71.463, 266.437 73.250 M 200.292 71.742 C 204.027 71.935, 209.877 71.934, 213.292 71.739 C 216.706 71.545, 213.650 71.387, 206.500 71.389 C 199.350 71.390, 196.556 71.550, 200.292 71.742 M 38.250 74.735 C 40.862 74.941, 45.138 74.941, 47.750 74.735 C 50.362 74.529, 48.225 74.360, 43 74.360 C 37.775 74.360, 35.638 74.529, 38.250 74.735 M 143.655 75.250 C 143.909 75.662, 145.190 76, 146.500 76 C 147.810 76, 149.091 75.662, 149.345 75.250 C 149.600 74.838, 148.320 74.500, 146.500 74.500 C 144.680 74.500, 143.400 74.838, 143.655 75.250 M 85 79.500 C 86.866 81.425, 88.617 83, 88.892 83 C 89.167 83, 87.866 81.425, 86 79.500 C 84.134 77.575, 82.383 76, 82.108 76 C 81.833 76, 83.134 77.575, 85 79.500 M 103.129 80.618 C 101.135 82.737, 100.567 83.767, 101.738 83.140 C 103.351 82.277, 107.729 76.954, 106.773 77.018 C 106.623 77.029, 104.983 78.648, 103.129 80.618 M 83 81.500 C 84.866 83.425, 86.617 85, 86.892 85 C 87.167 85, 85.866 83.425, 84 81.500 C 82.134 79.575, 80.383 78, 80.108 78 C 79.833 78, 81.134 79.575, 83 81.500 M 78.157 84.547 L 78.314 90.500 78.907 85.672 L 79.500 80.845 82.178 83.672 C 83.701 85.280, 85.034 88.010, 85.268 90 L 85.680 93.500 85.840 89.953 C 85.972 87.026, 85.300 85.723, 82 82.500 L 78 78.594 78.157 84.547 M 106 82 C 104.825 83.650, 104.089 85, 104.364 85 C 104.639 85, 105.825 83.650, 107 82 C 108.175 80.350, 108.911 79, 108.636 79 C 108.361 79, 107.175 80.350, 106 82 M 101.625 85.709 C 101.235 86.098, 98.797 86.713, 96.208 87.075 L 91.500 87.733 95.559 87.866 C 97.791 87.940, 100.491 87.339, 101.559 86.532 C 102.626 85.724, 103.237 85.049, 102.917 85.032 C 102.596 85.014, 102.014 85.319, 101.625 85.709 M 158.150 102.250 C 158.305 110.767, 158.724 109.783, 159.217 99.749 C 159.373 96.585, 159.162 93.998, 158.750 93.999 C 158.338 93.999, 158.067 97.713, 158.150 102.250 M 169.639 94.694 C 169.288 95.046, 169 96.584, 169 98.112 C 169 100.707, 168.687 100.915, 164.250 101.265 L 159.500 101.640 164.750 101.820 L 170 102 170.183 98.250 C 170.284 96.188, 170.652 98.100, 171 102.500 L 171.633 110.500 171.817 102.809 C 171.985 95.741, 171.267 93.066, 169.639 94.694 M 182.440 95.297 C 182.144 96.068, 182.061 99.804, 182.255 103.599 L 182.608 110.500 182.804 102.750 L 183 95 188.250 95.180 L 193.500 95.360 188.750 95.735 C 184.284 96.087, 184 96.280, 184 98.954 C 184 101.596, 184.313 101.824, 188.405 102.149 C 190.827 102.342, 192.600 102.162, 192.346 101.750 C 192.091 101.338, 190.334 101, 188.441 101 C 185.701 101, 185 100.604, 185 99.057 C 185 97.487, 185.814 97.056, 189.250 96.807 C 195.244 96.374, 194.542 94.560, 188.239 94.197 C 184.434 93.978, 182.829 94.283, 182.440 95.297 M 207.556 94.910 C 207.247 95.410, 207.296 96.609, 207.667 97.574 C 208.123 98.763, 207.967 99.098, 207.181 98.612 C 206.401 98.130, 206.238 98.456, 206.681 99.612 C 207.102 100.708, 206.951 101.088, 206.263 100.663 C 205.571 100.235, 205.363 100.800, 205.680 102.249 C 206.017 103.784, 205.883 104.093, 205.260 103.222 C 204.576 102.264, 204.059 102.574, 203.200 104.460 C 201.892 107.330, 202.684 111.113, 204.116 108.834 C 204.577 108.100, 204.744 106.822, 204.487 105.994 C 204.111 104.782, 204.849 104.553, 208.260 104.824 C 212.200 105.138, 212.500 104.986, 212.500 102.676 C 212.500 101.309, 212.210 100.370, 211.855 100.590 C 211.050 101.087, 209.760 97.907, 210.476 97.190 C 210.764 96.902, 211 97.267, 211 98 C 211 98.733, 211.261 99.072, 211.581 98.752 C 212.342 97.991, 210.195 94, 209.024 94 C 208.526 94, 207.865 94.409, 207.556 94.910 M 226.826 101.406 L 227.152 108.817 231.982 109.159 C 234.638 109.346, 236.603 109.162, 236.347 108.750 C 236.091 108.338, 234.109 108, 231.941 108 L 228 108 228 101 C 228 97.150, 227.662 93.999, 227.250 93.998 C 226.838 93.996, 226.647 97.330, 226.826 101.406 M 242.736 94.597 C 241.500 95.833, 243.072 97.002, 245.809 96.882 L 248.500 96.763 245.500 96 C 243.218 95.419, 244.057 95.237, 249 95.237 C 253.344 95.237, 254.505 95.448, 252.500 95.875 C 249.536 96.505, 249.499 96.594, 249.426 103.260 L 249.352 110.008 249.720 103.566 C 250.063 97.572, 250.261 97.103, 252.575 96.812 C 253.943 96.640, 255.161 96.050, 255.281 95.500 C 255.527 94.375, 243.802 93.531, 242.736 94.597 M 264.150 102.250 C 264.305 110.767, 264.724 109.783, 265.217 99.749 C 265.373 96.585, 265.163 93.998, 264.750 93.999 C 264.337 93.999, 264.067 97.713, 264.150 102.250 M 275 97.445 C 275 100.836, 274.925 100.896, 270.250 101.265 L 265.500 101.640 270.645 101.820 L 275.790 102 276.171 98 C 276.381 95.800, 276.203 94, 275.776 94 C 275.349 94, 275 95.550, 275 97.445 M 320.201 102.250 L 320.402 110.500 320.742 102.801 L 321.082 95.102 326.291 94.736 L 331.500 94.370 325.750 94.185 L 320 94 320.201 102.250 M 341.201 102.250 L 341.402 110.500 341.742 102.808 L 342.082 95.116 345.791 94.726 L 349.500 94.336 345.250 94.168 L 341 94 341.201 102.250 M 374.736 94.598 C 374.407 94.927, 374.408 95.900, 374.739 96.762 C 375.133 97.788, 374.941 98.081, 374.181 97.612 C 373.418 97.140, 373.232 97.440, 373.635 98.491 C 374.421 100.539, 375.193 99.747, 375.546 96.533 C 375.837 93.884, 375.722 93.611, 374.736 94.598 M 385.150 102.250 C 385.305 110.767, 385.724 109.783, 386.217 99.749 C 386.373 96.585, 386.163 93.998, 385.750 93.999 C 385.337 93.999, 385.067 97.713, 385.150 102.250 M 420.440 95.297 C 420.144 96.068, 420.061 99.804, 420.255 103.599 L 420.608 110.500 420.804 102.750 L 421 95 426.250 95.180 L 431.500 95.360 426.750 95.735 C 422.284 96.087, 422 96.280, 422 98.954 C 422 101.596, 422.313 101.824, 426.405 102.149 C 428.827 102.342, 430.600 102.162, 430.346 101.750 C 430.091 101.338, 428.334 101, 426.441 101 C 423.701 101, 423 100.604, 423 99.057 C 423 97.487, 423.814 97.056, 427.250 96.807 C 433.244 96.374, 432.542 94.560, 426.239 94.197 C 422.434 93.978, 420.829 94.283, 420.440 95.297 M 299.942 96.570 C 299.320 97.319, 299.043 98.510, 299.327 99.216 C 299.625 99.959, 299.902 99.657, 299.984 98.500 C 300.109 96.744, 300.260 96.805, 301.220 99 C 301.821 100.375, 302.242 101.838, 302.156 102.250 C 301.951 103.236, 303.170 103.179, 304.835 102.123 C 305.849 101.480, 305.669 101.147, 304.085 100.732 C 301.554 100.071, 301.318 97.288, 303.750 96.783 C 305.187 96.484, 305.104 96.311, 303.287 95.813 C 301.970 95.452, 300.615 95.759, 299.942 96.570 M 307 96 C 305.787 96.784, 305.931 96.972, 307.750 96.985 C 308.988 96.993, 310 96.550, 310 96 C 310 94.747, 308.939 94.747, 307 96 M 346.750 95.728 C 343.107 96.110, 343 96.235, 343 100.121 C 343 104.113, 343.007 104.120, 346.649 103.810 C 350.745 103.462, 352.736 101.235, 351.500 98.386 C 351.051 97.349, 350.754 96.162, 350.841 95.750 C 350.929 95.338, 350.887 95.076, 350.750 95.168 C 350.613 95.261, 348.813 95.513, 346.750 95.728 M 399.657 96.235 C 398.850 96.747, 398.928 96.974, 399.917 96.985 C 400.696 96.993, 400.996 97.338, 400.583 97.750 C 400.171 98.162, 399.308 98.500, 398.667 98.500 C 398.025 98.500, 397.428 100.075, 397.341 102 L 397.182 105.500 397.959 102 C 398.387 100.075, 398.796 99.112, 398.868 99.861 C 398.960 100.809, 399.530 100.615, 400.750 99.218 C 402.489 97.228, 410.602 95.218, 409.463 97.059 C 409.144 97.577, 409.396 98, 410.024 98 C 410.653 98, 410.984 97.453, 410.762 96.785 C 410.317 95.451, 401.574 95.018, 399.657 96.235 M 324.264 96.718 C 325.784 96.947, 328.034 96.941, 329.264 96.704 C 330.494 96.467, 329.250 96.279, 326.500 96.286 C 323.750 96.294, 322.744 96.488, 324.264 96.718 M 352.455 100 C 352.455 103.371, 352.628 103.759, 353.380 102.074 C 353.947 100.803, 353.947 99.197, 353.380 97.926 C 352.628 96.241, 352.455 96.629, 352.455 100 M 56.004 99.345 C 58.640 102.350, 63.024 105.026, 65.200 104.961 C 65.915 104.939, 64.925 104.240, 63 103.406 C 61.075 102.572, 58.152 100.677, 56.504 99.195 L 53.507 96.500 56.004 99.345 M 67.250 97.689 C 68.213 97.941, 69.787 97.941, 70.750 97.689 C 71.713 97.438, 70.925 97.232, 69 97.232 C 67.075 97.232, 66.287 97.438, 67.250 97.689 M 363.647 98.476 C 363.290 99.409, 363.380 100.857, 363.849 101.695 C 364.595 103.029, 364.783 103.007, 365.353 101.524 C 365.710 100.591, 365.620 99.143, 365.151 98.305 C 364.405 96.971, 364.217 96.993, 363.647 98.476 M 371.187 101.488 C 370.564 102.857, 370.315 104.657, 370.634 105.488 C 371.370 107.406, 370.564 107.421, 368.669 105.526 C 367.369 104.227, 367.125 104.233, 366.609 105.578 C 366.244 106.529, 366.436 106.849, 367.119 106.427 C 367.862 105.967, 367.986 106.513, 367.504 108.125 C 366.810 110.445, 366.830 110.454, 368.365 108.500 C 369.561 106.978, 369.952 106.858, 370.004 108 C 370.045 108.918, 370.622 108.530, 371.492 107 C 372.273 105.625, 372.659 103.656, 372.349 102.625 C 371.986 101.417, 372.176 100.991, 372.881 101.427 C 373.568 101.851, 373.755 101.525, 373.382 100.552 C 372.604 98.526, 372.521 98.561, 371.187 101.488 M 323.750 101.706 C 324.988 101.944, 327.012 101.944, 328.250 101.706 C 329.488 101.467, 328.475 101.272, 326 101.272 C 323.525 101.272, 322.512 101.467, 323.750 101.706 M 74.500 103.536 C 72.850 104.292, 72.201 104.930, 73.059 104.955 C 73.916 104.980, 75.491 104.339, 76.559 103.532 C 78.929 101.739, 78.423 101.740, 74.500 103.536 M 306 103.082 C 304.844 103.890, 305.045 103.977, 306.875 103.458 C 308.643 102.958, 309.051 103.108, 308.471 104.047 C 307.964 104.867, 308.095 105.059, 308.845 104.595 C 309.560 104.154, 310 104.589, 310 105.737 C 310 107.168, 309.145 107.649, 306.252 107.844 C 301.037 108.195, 300.198 109.505, 305.207 109.476 C 309.934 109.449, 312.230 107.174, 310.423 104.310 C 309.040 102.117, 307.851 101.787, 306 103.082 M 169.252 106.500 C 169.263 108.700, 169.468 109.482, 169.707 108.238 C 169.946 106.994, 169.937 105.194, 169.687 104.238 C 169.437 103.282, 169.241 104.300, 169.252 106.500 M 184.150 105.653 C 184.003 108.748, 184.093 108.813, 189.001 109.153 C 191.751 109.344, 194.001 109.162, 194.001 108.750 C 194 108.338, 192.005 108, 189.566 108 C 185.497 108, 185.099 107.774, 184.716 105.250 C 184.317 102.614, 184.293 102.630, 184.150 105.653 M 275.252 106.500 C 275.263 108.700, 275.468 109.482, 275.707 108.238 C 275.946 106.994, 275.937 105.194, 275.687 104.238 C 275.437 103.282, 275.241 104.300, 275.252 106.500 M 398.766 104.787 C 398.431 106.067, 398.816 107.433, 399.725 108.187 C 401.460 109.627, 409.104 109.979, 408.240 108.580 C 407.927 108.074, 408.421 107.947, 409.336 108.299 C 410.251 108.650, 411 108.466, 411 107.889 C 411 106.920, 407.821 107.213, 402.725 108.650 C 401.749 108.925, 401.031 108.779, 401.131 108.325 C 401.231 107.871, 400.865 106.408, 400.319 105.074 C 399.344 102.693, 399.315 102.688, 398.766 104.787 M 422.150 105.653 C 422.003 108.748, 422.093 108.813, 427.001 109.153 C 429.751 109.344, 432.001 109.162, 432.001 108.750 C 432 108.338, 430.005 108, 427.566 108 C 423.497 108, 423.099 107.774, 422.716 105.250 C 422.317 102.614, 422.293 102.630, 422.150 105.653 M 213.667 105.425 C 213.253 106.504, 213.414 106.862, 214.119 106.427 C 214.858 105.970, 214.995 106.522, 214.542 108.125 C 214.023 109.956, 214.109 110.157, 214.919 109 C 215.787 107.760, 215.972 107.746, 215.985 108.917 C 215.993 109.696, 216.260 110.073, 216.578 109.755 C 216.896 109.437, 216.516 107.955, 215.734 106.462 C 214.548 104.199, 214.204 104.026, 213.667 105.425 M 350 104.799 C 350 105.239, 348.313 105.410, 346.250 105.179 C 344.188 104.949, 342.725 104.990, 343 105.271 C 343.275 105.552, 345.374 105.992, 347.664 106.250 C 350.893 106.613, 351.712 106.412, 351.307 105.359 C 350.733 103.862, 350 103.548, 350 104.799 M 323 108.558 C 326.787 109.382, 332 109.522, 332 108.799 C 332 108.360, 329.637 108.052, 326.750 108.116 C 323.863 108.180, 322.175 108.379, 323 108.558" stroke="none" fill="#bcd8ee" fill-rule="evenodd"/><path d="M 63.500 12.460 C 58.900 14.112, 53.402 19.894, 52.492 24.035 C 52.150 25.594, 52.347 28.586, 52.929 30.685 C 54.272 35.518, 54.315 44.687, 53 45.500 C 50.935 46.776, 52.118 48, 55.416 48 L 58.833 48 59.166 36.020 C 59.483 24.643, 59.632 23.908, 62.118 21.425 C 65.253 18.293, 70.527 17.805, 74.329 20.296 C 77.731 22.525, 78.988 27.473, 78.994 38.667 L 79 47.835 89.171 47.917 C 102.078 48.021, 105.839 49.589, 107.969 55.750 C 108.777 58.087, 109.867 60, 110.390 60 C 110.914 60, 112.125 60.708, 113.081 61.573 C 114.676 63.016, 114.874 62.972, 115.490 61.031 C 117.447 54.864, 112.191 45.231, 105.298 42.351 C 103.493 41.597, 98.516 41, 94.032 41 L 86 41 85.956 33.750 C 85.909 25.975, 84.310 20.105, 81.347 16.831 C 77.061 12.095, 69.601 10.268, 63.500 12.460 M 37.700 24.341 C 36.705 26.931, 38.606 28.297, 42.252 27.613 C 46.555 26.805, 47.569 27.892, 49.079 34.934 C 50.504 41.579, 49.334 44.545, 44.485 46.571 C 41.380 47.868, 40.633 47.862, 38.026 46.513 C 34.779 44.835, 30 37.521, 30 34.232 C 30 32.823, 30.735 32.035, 32.250 31.820 C 34.976 31.432, 35.968 27.309, 33.557 26.384 C 31.086 25.435, 29.159 27.760, 28.439 32.557 C 27.887 36.240, 28.215 37.691, 30.469 41.538 C 33.173 46.151, 38.042 49.989, 41.200 49.996 C 42.135 49.998, 44.585 52.015, 46.643 54.478 C 51.745 60.580, 55.862 62.409, 62.694 61.606 C 65.701 61.253, 68.904 61.413, 69.943 61.970 C 70.968 62.518, 73.832 66.461, 76.310 70.733 C 82.971 82.220, 88.605 87, 95.484 87 C 102.220 87, 107.493 82.306, 111.454 72.782 C 114.698 64.982, 112.767 62.559, 102.500 61.542 C 91.475 60.450, 91 60.251, 91.649 57.007 C 92.746 51.520, 85.386 47.706, 81.655 51.829 C 77.571 56.342, 80.929 62.050, 87.568 61.882 C 95.113 61.691, 109.225 64.409, 110.401 66.280 C 111.960 68.759, 105.780 80.553, 101.579 83.115 C 93.648 87.951, 86.741 83.938, 77.932 69.375 C 72.335 60.123, 69.781 58.460, 62.783 59.510 C 54.808 60.706, 48.037 56.121, 48.465 49.815 C 48.565 48.338, 49.289 46.354, 50.074 45.406 C 52.011 43.065, 51.743 33.338, 49.630 29.251 C 47.071 24.303, 38.990 20.977, 37.700 24.341 M 385 33.969 C 377.065 35.067, 372.511 38.389, 370.940 44.224 C 369.112 51.011, 372.731 57.387, 379.500 59.304 C 394.177 63.462, 395.914 64.154, 396.531 66.096 C 396.942 67.392, 396.539 68.852, 395.435 70.072 C 393.030 72.729, 383.132 72.697, 377.217 70.012 L 372.935 68.069 371.237 71.629 C 369.606 75.049, 369.616 75.246, 371.489 76.615 C 374.733 78.987, 381.114 80.401, 388.500 80.383 C 400.528 80.355, 407 75.314, 407 65.973 C 407 60.065, 403.346 56.734, 393.902 54.032 C 381.362 50.445, 378.764 48.128, 382.567 43.926 C 384.737 41.528, 392.417 41.312, 397.654 43.500 C 399.629 44.325, 401.549 45, 401.921 45 C 402.904 45, 405.223 38.170, 404.588 37.143 C 403.284 35.033, 391.320 33.095, 385 33.969 M 121 57 L 121 80 126 80 L 131 80 131 66.794 L 131 53.588 137.376 64.044 C 146.215 78.537, 146.833 78.546, 155.170 64.309 L 161.500 53.500 161.779 66.750 L 162.058 80 167.029 80 L 172 80 172 57 L 172 34 167.750 34.010 L 163.500 34.021 155.626 47.528 C 151.295 54.957, 147.384 61.262, 146.935 61.540 C 146.486 61.817, 142.380 55.747, 137.809 48.050 L 129.500 34.056 125.250 34.028 L 121 34 121 57 M 183 57 L 183 80 201 80 L 219 80 219 76 L 219 72 206.500 72 L 194 72 194 66.500 L 194 61 204.500 61 L 215 61 215 57 L 215 53 204.500 53 L 194 53 194 48.032 L 194 43.063 205.750 42.782 L 217.500 42.500 217.807 38.250 L 218.115 34 200.557 34 L 183 34 183 57 M 227 56.998 L 227 80.218 241.750 79.813 C 257.881 79.371, 261.547 78.295, 267.197 72.342 C 275.235 63.872, 274.842 48.741, 266.376 40.803 C 261.041 35.800, 256.723 34.666, 241.250 34.204 L 227 33.778 227 56.998 M 281 57 L 281 80 286.500 80 L 292 80 292 57 L 292 34 286.500 34 L 281 34 281 57 M 297.149 34.869 C 297.342 35.404, 301.770 45.778, 306.990 57.921 L 316.480 80 321.631 80 L 326.782 80 330.824 70.750 C 340.262 49.149, 346 35.559, 346 34.806 C 346 34.363, 343.827 34, 341.171 34 L 336.343 34 329.469 50 C 325.688 58.800, 322.349 65.993, 322.047 65.984 C 321.746 65.975, 318.502 58.888, 314.838 50.234 L 308.176 34.500 302.487 34.197 C 299.094 34.016, 296.940 34.287, 297.149 34.869 M 352 57 L 352 80 357 80 L 362 80 362 57 L 362 34 357 34 L 352 34 352 57 M 415 57 L 415 80 420 80 L 425 80 425 57 L 425 34 420 34 L 415 34 415 57 M 431 38.500 L 431 43 438.500 43 L 446 43 446 61.500 L 446 80 451 80 L 456 80 456 61.500 L 456 43 463.500 43 L 471 43 471 38.500 L 471 34 451 34 L 431 34 431 38.500 M 238 57.103 L 238 71.205 246.435 70.853 C 254.182 70.529, 255.121 70.259, 257.951 67.548 C 265.413 60.398, 263.632 48.923, 254.316 44.125 C 253.114 43.506, 248.952 43, 245.066 43 L 238 43 238 57.103 M 26.089 47.405 C 21.363 52.435, 21.364 62.380, 26.092 68.389 C 29.600 72.850, 33.057 74, 42.950 74 L 52 74 52.006 81.750 C 52.009 86.013, 52.470 91.150, 53.030 93.168 C 54.225 97.472, 59.322 102.291, 64.479 103.993 C 77.391 108.254, 91.201 92.316, 82.129 83.624 L 79.258 80.873 78.783 86.605 C 78.379 91.473, 77.830 92.762, 75.138 95.168 C 71.723 98.220, 68.621 98.696, 64.472 96.805 C 60.101 94.814, 59 91.258, 59 79.133 L 59 68.167 46.916 67.834 L 34.831 67.500 31.916 64.234 C 30.311 62.437, 29 59.822, 29 58.418 C 29 55.734, 30.642 51.929, 32.255 50.876 C 33.235 50.236, 30.387 45, 29.059 45 C 28.668 45, 27.332 46.082, 26.089 47.405 M 159.336 102.500 C 159.336 106.900, 159.513 108.813, 159.728 106.750 L 160.121 103 165 103 L 169.879 103 170.272 106.750 C 170.487 108.813, 170.664 106.900, 170.664 102.500 C 170.664 98.100, 170.487 96.188, 170.272 98.250 L 169.879 102 165 102 L 160.121 102 159.728 98.250 C 159.513 96.188, 159.336 98.100, 159.336 102.500 M 183 102.500 L 183 110 188.250 109.820 L 193.500 109.640 188.750 109.265 C 184.266 108.911, 184 108.728, 184 106.003 C 184 103.332, 184.320 103.086, 188.250 102.732 L 192.500 102.349 188.250 102.175 C 184.252 102.010, 184 101.826, 184 99.055 C 184 96.260, 184.243 96.090, 188.750 95.735 L 193.500 95.360 188.250 95.180 L 183 95 183 102.500 M 205.137 102.155 C 203.399 106.091, 202.166 109.499, 202.397 109.731 C 202.628 109.962, 203.114 109.217, 203.476 108.075 C 204.024 106.350, 204.954 106, 209 106 C 213.046 106, 213.976 106.350, 214.524 108.075 C 214.886 109.217, 215.388 109.945, 215.640 109.693 C 216.262 109.072, 209.917 95, 209.015 95 C 208.621 95, 206.876 98.220, 205.137 102.155 M 226.199 102.250 L 226 110 231.250 109.820 L 236.500 109.640 231.793 109.267 L 227.085 108.894 226.741 101.697 L 226.397 94.500 226.199 102.250 M 245.250 95.716 C 247.936 96.123, 248.004 96.300, 248.177 103.316 L 248.353 110.500 248.927 103.505 C 249.483 96.713, 249.587 96.492, 252.500 95.874 C 254.471 95.455, 253.270 95.247, 249 95.268 C 245.425 95.285, 243.738 95.487, 245.250 95.716 M 265.336 102.500 C 265.336 106.900, 265.513 108.813, 265.728 106.750 L 266.121 103 271 103 L 275.879 103 276.272 106.750 C 276.487 108.813, 276.664 106.900, 276.664 102.500 C 276.664 98.100, 276.487 96.188, 276.272 98.250 L 275.879 102 271 102 L 266.121 102 265.728 98.250 C 265.513 96.188, 265.336 98.100, 265.336 102.500 M 301.040 96.452 C 299.518 98.285, 300.035 101.181, 302 101.830 C 303.282 102.253, 303.302 102.085, 302.138 100.675 C 300.144 98.260, 301.420 96.193, 305.193 95.728 L 308.500 95.320 305.372 95.160 C 303.652 95.072, 301.703 95.653, 301.040 96.452 M 321 102.500 L 321 110 326.250 109.820 L 331.500 109.640 326.750 109.265 C 322.266 108.911, 322 108.728, 322 106.003 C 322 103.332, 322.320 103.086, 326.250 102.732 L 330.500 102.349 326.250 102.175 C 322.252 102.010, 322 101.826, 322 99.055 C 322 96.260, 322.243 96.090, 326.750 95.735 L 331.500 95.360 326.250 95.180 L 321 95 321 102.500 M 342.150 102.750 C 342.232 107.013, 342.487 109.263, 342.716 107.750 C 343.050 105.548, 343.660 105, 345.779 105 C 347.419 105, 349.334 106.046, 350.817 107.750 L 353.209 110.500 351.562 107.721 C 350.079 105.217, 350.068 104.789, 351.458 103.399 C 355.159 99.698, 352.066 95, 345.929 95 L 342 95 342.150 102.750 M 362.226 96.086 C 365.032 103.096, 368.400 110, 369.014 110 C 369.428 110, 369.995 109.213, 370.273 108.250 C 370.552 107.287, 371.949 103.912, 373.377 100.750 C 374.806 97.588, 375.760 95, 375.497 95 C 375.235 95, 373.626 98.037, 371.921 101.750 L 368.823 108.500 366.411 103.122 C 365.085 100.164, 364 97.378, 364 96.931 C 364 96.484, 363.474 95.793, 362.830 95.395 C 362.081 94.932, 361.864 95.181, 362.226 96.086 M 386.343 102.500 C 386.346 106.900, 386.522 108.576, 386.733 106.224 C 386.945 103.872, 386.942 100.272, 386.727 98.224 C 386.512 96.176, 386.339 98.100, 386.343 102.500 M 400.189 97.039 C 397.016 99.995, 397.231 105.250, 400.635 107.927 C 403.474 110.161, 406.604 110.557, 409 108.986 C 410.067 108.286, 409.566 108.182, 407.262 108.624 C 402.562 109.526, 399 106.942, 399 102.632 C 399 97.903, 401.879 95.558, 406.727 96.337 C 409.313 96.753, 410.028 96.642, 409 95.987 C 406.510 94.400, 402.509 94.877, 400.189 97.039 M 421 102.500 L 421 110 426.250 109.820 L 431.500 109.640 426.750 109.265 C 422.266 108.911, 422 108.728, 422 106.003 C 422 103.332, 422.320 103.086, 426.250 102.732 L 430.500 102.349 426.250 102.175 C 422.252 102.010, 422 101.826, 422 99.055 C 422 96.260, 422.243 96.090, 426.750 95.735 L 431.500 95.360 426.250 95.180 L 421 95 421 102.500 M 343 100 L 343 104.121 346.649 103.810 C 350.950 103.445, 353.082 100.946, 351.394 98.250 C 350.755 97.230, 348.775 96.371, 346.649 96.190 L 343 95.879 343 100 M 206.708 100.750 C 205.289 104.283, 205.311 104.519, 207.101 104.820 C 208.145 104.995, 209.855 104.995, 210.899 104.820 C 212.689 104.519, 212.711 104.283, 211.292 100.750 C 210.464 98.688, 209.432 97, 209 97 C 208.568 97, 207.536 98.688, 206.708 100.750 M 306.345 103.194 C 308.606 104.017, 309.097 104.712, 308.739 106.585 C 308.491 107.880, 308.674 108.702, 309.144 108.411 C 311.848 106.740, 308.511 101.857, 304.816 102.079 C 304.092 102.122, 304.780 102.624, 306.345 103.194 M 301 108.986 C 301.825 109.527, 303.587 109.976, 304.917 109.985 C 308.126 110.005, 307.313 109.436, 303 108.645 C 300.538 108.193, 299.945 108.294, 301 108.986" stroke="none" fill="#2c7fce" fill-rule="evenodd"/></svg>